<svg width="565" height="56" viewBox="0 0 565 56" fill="none" xmlns="http://www.w3.org/2000/svg">
<path d="M15.44 55H0.4V1.4H15.44V21.32H40.4V1.4H55.44V55H40.4V34.84H15.44V55ZM73.2838 55.8C64.1638 55.8 59.0438 51.64 59.0438 44.76C59.0438 39.08 62.9638 35 72.0838 34.12L88.4838 32.52V31.72C88.4838 27.64 86.7238 27 81.3637 27C76.4038 27 74.8838 27.96 74.8838 31.32V31.64H59.8438V31.48C59.8438 20.76 68.8038 13.88 82.4838 13.88C96.5638 13.88 103.364 20.76 103.364 32.04V55H89.2838V46.52H88.4838C86.9638 52.2 82.0038 55.8 73.2838 55.8ZM74.1638 43.8C74.1638 45.08 75.4438 45.32 77.7638 45.32C85.0438 45.32 88.0038 44.44 88.4038 40.84L76.0838 42.28C74.7238 42.44 74.1638 42.92 74.1638 43.8ZM130.462 55.8C116.142 55.8 107.022 47.88 107.022 34.84C107.022 21.72 116.142 13.88 130.462 13.88C144.222 13.88 153.022 20.92 153.022 31.72V33H138.062V32.36C138.062 28.2 135.022 27.32 130.142 27.32C124.622 27.32 121.982 28.52 121.982 34.84C121.982 41.08 124.622 42.28 130.142 42.28C135.022 42.28 138.062 41.48 138.062 37.32V36.6H153.022V37.96C153.022 48.68 144.222 55.8 130.462 55.8ZM172.081 55H157.041V1.4H172.081V28.68H179.201L188.081 14.68H205.841L191.521 34.28L205.601 55H187.841L179.361 42.12H172.081V55ZM220.471 55.8C211.351 55.8 206.231 51.64 206.231 44.76C206.231 39.08 210.151 35 219.271 34.12L235.671 32.52V31.72C235.671 27.64 233.911 27 228.551 27C223.591 27 222.071 27.96 222.071 31.32V31.64H207.031V31.48C207.031 20.76 215.991 13.88 229.671 13.88C243.751 13.88 250.551 20.76 250.551 32.04V55H236.471V46.52H235.671C234.151 52.2 229.191 55.8 220.471 55.8ZM221.351 43.8C221.351 45.08 222.631 45.32 224.951 45.32C232.231 45.32 235.191 44.44 235.591 40.84L223.271 42.28C221.911 42.44 221.351 42.92 221.351 43.8ZM285.169 55H274.609C264.529 55 258.529 50.12 258.529 39.64V27H252.609V14.68H258.529V7.72H273.569V14.68H285.169V27H273.569V37.48C273.569 40.68 274.529 41.48 277.969 41.48H285.169V55ZM303.799 55H288.759V1.4H303.799V26.92H304.599C305.879 20.12 310.359 13.88 320.679 13.88C331.399 13.88 336.519 20.68 336.519 29.64V55H321.479V34.68C321.479 29.08 319.319 27.32 312.439 27.32C305.479 27.32 303.799 29 303.799 34.2V55ZM363.345 55.8C349.345 55.8 339.825 47.88 339.825 34.84C339.825 21.72 349.345 13.88 363.345 13.88C377.345 13.88 386.865 21.72 386.865 34.84C386.865 47.88 377.345 55.8 363.345 55.8ZM363.345 42.52C370.145 42.52 371.985 40.68 371.985 34.84C371.985 29 370.145 27.08 363.345 27.08C356.545 27.08 354.705 29 354.705 34.84C354.705 40.68 356.545 42.52 363.345 42.52ZM405.518 55H390.478V14.68H404.558V26.92H405.358C406.238 20.2 410.638 13.88 421.438 13.88C432.318 13.88 437.438 20.44 437.438 29.16V55H422.398V34.68C422.398 29.08 420.318 27.32 413.758 27.32C407.118 27.32 405.518 29 405.518 34.2V55Z" fill="white"/>
<path d="M480.816 55H465.776V18.2H451.456V8.04H453.456C459.296 8.04 463.856 6.84 466.816 1.4H480.816V55ZM505.154 55H485.634V39.64H505.154V55ZM536.891 55.8C518.651 55.8 509.131 44.68 509.131 28.2C509.131 11.8 518.651 0.599999 536.891 0.599999C555.051 0.599999 564.571 11.8 564.571 28.2C564.571 44.68 555.051 55.8 536.891 55.8ZM536.891 41.16C546.011 41.16 548.411 38.12 548.411 28.2C548.411 18.28 546.011 15.24 536.891 15.24C527.691 15.24 525.291 18.28 525.291 28.2C525.291 38.12 527.691 41.16 536.891 41.16Z" fill="#D434FE"/>
</svg>
